<svg version="1.2" xmlns="http://www.w3.org/2000/svg" viewBox="0 0.07086614173294947 566.9291338582677 566.929133858267" width="567" height="567">
	<defs>
		<linearGradient id="g1" x2="1" gradientUnits="userSpaceOnUse" gradientTransform="matrix(0,-361.728,407.824,0,76.335,464.4)">
			<stop offset="0" stop-color="#00b6a9"/>
			<stop offset="1" stop-color="#8cba42"/>
		</linearGradient>
	</defs>
	<style>
		.s0 { fill: #fefefe } 
		.s1 { fill: #8cba42 } 
		.s2 { fill: #00b6a9 } 
		.s3 { fill: #464248 } 
		.s4 { fill: #231f20 } 
		.s5 { fill: url(#g1) } 
	</style>
	<g id="Fondo">
		<path id="&lt;Path&gt;" class="s0" d="m566.93 567h-566.93v-566.93h566.93z"/>
		<path id="&lt;Path&gt;" class="s1" d="m40.93-155.91h-38.07v-38.07h38.07z"/>
		<path id="&lt;Path&gt;" class="s2" d="m40.93-108.37h-38.07v-38.07h38.07z"/>
		<path id="&lt;Path&gt;" class="s3" d="m40.93-60.83h-38.07v-38.06h38.07z"/>
		<g id="&lt;Group&gt;">
			<path id="&lt;Compound Path&gt;" class="s4" d="m3.09-227.31v-30.41h9.85q5.6 0 7.3 0.46 2.62 0.68 4.38 2.98 1.76 2.29 1.76 5.92 0 2.8-1.02 4.7-1.01 1.91-2.58 3-1.56 1.09-3.18 1.44-2.2 0.44-6.37 0.44h-4v11.47zm6.14-25.26v8.62h3.36q3.63 0 4.85-0.47 1.22-0.48 1.92-1.5 0.69-1.01 0.69-2.36 0-1.66-0.97-2.74-0.98-1.08-2.47-1.35-1.1-0.2-4.42-0.2z"/>
			<path id="&lt;Compound Path&gt;" class="s4" d="m35.73-242.62l-5.28-0.95q0.89-3.2 3.07-4.73 2.17-1.54 6.47-1.54 3.89 0 5.8 0.93 1.91 0.92 2.69 2.34 0.78 1.42 0.78 5.22l-0.07 6.8q0 2.9 0.28 4.28 0.28 1.38 1.05 2.96h-5.76q-0.23-0.58-0.56-1.72-0.15-0.52-0.21-0.69-1.49 1.45-3.2 2.18-1.7 0.72-3.62 0.72-3.41 0-5.37-1.84-1.96-1.85-1.96-4.67 0-1.86 0.9-3.33 0.89-1.46 2.5-2.24 1.6-0.77 4.63-1.35 4.09-0.77 5.66-1.44v-0.58q0-1.68-0.83-2.39-0.83-0.72-3.13-0.72-1.55 0-2.43 0.61-0.87 0.62-1.41 2.15zm7.8 4.73q-1.12 0.37-3.54 0.89-2.43 0.52-3.18 1.02-1.14 0.81-1.14 2.05 0 1.23 0.91 2.12 0.92 0.89 2.33 0.89 1.57 0 3-1.04 1.06-0.79 1.39-1.93 0.23-0.74 0.23-2.84z"/>
			<path id="&lt;Compound Path&gt;" class="s4" d="m75.04-227.31h-5.83v-11.24q0-3.57-0.38-4.62-0.37-1.05-1.21-1.63-0.84-0.58-2.02-0.58-1.52 0-2.72 0.83-1.2 0.83-1.65 2.2-0.44 1.37-0.44 5.06v9.98h-5.83v-22.03h5.41v3.24q2.89-3.74 7.26-3.74 1.93 0 3.53 0.7 1.59 0.69 2.41 1.77 0.82 1.08 1.14 2.45 0.33 1.37 0.33 3.92z"/>
			<path id="&lt;Compound Path&gt;" class="s4" d="m91.05-249.34v4.65h-3.99v8.87q0 2.7 0.12 3.15 0.11 0.44 0.52 0.73 0.4 0.29 0.98 0.29 0.81 0 2.35-0.56l0.49 4.52q-2.03 0.87-4.6 0.87-1.58 0-2.84-0.52-1.27-0.53-1.86-1.37-0.59-0.84-0.82-2.27-0.18-1.02-0.18-4.11v-9.6h-2.68v-4.65h2.68v-4.37l5.84-3.41v7.78z"/>
			<path id="&lt;Compound Path&gt;" class="s4" d="m93.74-238.64q0-2.9 1.43-5.62 1.43-2.71 4.06-4.14 2.62-1.44 5.86-1.44 4.99 0 8.19 3.25 3.19 3.25 3.19 8.2 0 5-3.22 8.29-3.23 3.28-8.12 3.28-3.03 0-5.78-1.36-2.75-1.37-4.18-4.02-1.43-2.64-1.43-6.44zm5.98 0.31q0 3.28 1.55 5.02 1.56 1.75 3.84 1.75 2.28 0 3.82-1.75 1.55-1.74 1.55-5.06 0-3.23-1.55-4.97-1.54-1.75-3.82-1.75-2.28 0-3.84 1.75-1.55 1.74-1.55 5.01z"/>
			<path id="&lt;Compound Path&gt;" class="s4" d="m141.07-227.31h-5.83v-11.24q0-3.57-0.37-4.62-0.38-1.05-1.22-1.63-0.83-0.58-2.02-0.58-1.51 0-2.71 0.83-1.21 0.83-1.65 2.2-0.45 1.37-0.45 5.06v9.98h-5.83v-22.03h5.42v3.24q2.88-3.74 7.26-3.74 1.92 0 3.52 0.7 1.6 0.69 2.42 1.77 0.82 1.08 1.14 2.45 0.32 1.37 0.32 3.92z"/>
			<path id="&lt;Compound Path&gt;" class="s4" d="m159.73-234.32l5.81 0.97q-1.12 3.2-3.53 4.87-2.42 1.66-6.05 1.66-5.75 0-8.5-3.75-2.18-3.01-2.18-7.59 0-5.48 2.86-8.58 2.86-3.1 7.24-3.1 4.91 0 7.76 3.25 2.84 3.25 2.71 9.94h-14.6q0.06 2.6 1.41 4.04 1.35 1.44 3.36 1.44 1.37 0 2.3-0.75 0.94-0.74 1.41-2.4zm0.34-5.89q-0.07-2.53-1.31-3.85-1.24-1.32-3.03-1.32-1.91 0-3.15 1.39-1.24 1.39-1.22 3.78z"/>
			<path id="&lt;Compound Path&gt;" class="s4" d="m168.55-233.6l5.85-0.89q0.37 1.7 1.51 2.58 1.14 0.88 3.2 0.88 2.26 0 3.4-0.83 0.76-0.58 0.76-1.55 0-0.66-0.41-1.1-0.44-0.41-1.95-0.77-7.05-1.55-8.94-2.84-2.61-1.78-2.61-4.95 0-2.87 2.26-4.82 2.26-1.95 7.01-1.95 4.52 0 6.72 1.48 2.2 1.47 3.03 4.35l-5.5 1.02q-0.35-1.29-1.34-1.97-0.98-0.69-2.81-0.69-2.3 0-3.3 0.65-0.66 0.45-0.66 1.18 0 0.62 0.58 1.06 0.79 0.58 5.45 1.63 4.65 1.06 6.5 2.6 1.82 1.55 1.82 4.33 0 3.03-2.53 5.21-2.53 2.17-7.48 2.17-4.51 0-7.13-1.82-2.62-1.83-3.43-4.96z"/>
		</g>
		<g id="&lt;Group&gt;">
			<path id="&lt;Compound Path&gt;" class="s4" d="m59.26-155.91v-30.41h9.85q5.6 0 7.3 0.46 2.61 0.68 4.37 2.97 1.77 2.3 1.77 5.93 0 2.79-1.02 4.7-1.01 1.91-2.58 3-1.57 1.09-3.18 1.44-2.2 0.44-6.37 0.44h-4v11.47zm6.13-25.27v8.63h3.36q3.63 0 4.86-0.47 1.22-0.48 1.92-1.5 0.69-1.01 0.69-2.36 0-1.66-0.97-2.74-0.98-1.08-2.47-1.35-1.1-0.21-4.42-0.21z"/>
			<path id="&lt;Compound Path&gt;" class="s4" d="m112.25-155.91h-5.83v-21.97q-3.2 2.99-7.53 4.42v-5.29q2.28-0.75 4.96-2.83 2.67-2.08 3.67-4.86h4.73z"/>
			<path id="&lt;Compound Path&gt;" class="s4" d="m121.04-163.73l5.81-0.61q0.25 1.98 1.47 3.13 1.22 1.15 2.82 1.15 1.82 0 3.09-1.49 1.27-1.48 1.27-4.46 0-2.8-1.26-4.2-1.25-1.4-3.27-1.4-2.51 0-4.5 2.21l-4.73-0.68 2.99-15.82h15.41v5.45h-10.99l-0.91 5.16q1.95-0.97 3.98-0.97 3.88 0 6.57 2.82 2.7 2.82 2.7 7.32 0 3.76-2.18 6.7-2.96 4.02-8.23 4.02-4.21 0-6.87-2.26-2.65-2.26-3.17-6.07z"/>
			<path id="&lt;Compound Path&gt;" class="s4" d="m144.58-180.49v-5.41h19.93v4.23q-2.47 2.42-5.02 6.97-2.55 4.54-3.89 9.65-1.34 5.11-1.32 9.14h-5.62q0.15-6.31 2.61-12.86 2.46-6.56 6.56-11.72z"/>
			<path id="&lt;Compound Path&gt;" class="s4" d="m168.78-164.02v-5.83h11.45v5.83z"/>
			<path id="&lt;Compound Path&gt;" class="s4" d="m187.34-172.32q-2.26-0.95-3.28-2.62-1.03-1.67-1.03-3.66 0-3.4 2.37-5.62 2.38-2.22 6.76-2.22 4.33 0 6.72 2.22 2.4 2.22 2.4 5.62 0 2.11-1.1 3.76-1.1 1.65-3.09 2.52 2.53 1.02 3.85 2.97 1.32 1.95 1.32 4.5 0 4.21-2.69 6.84-2.69 2.63-7.14 2.63-4.15 0-6.91-2.17-3.26-2.57-3.26-7.05 0-2.47 1.23-4.54 1.22-2.06 3.85-3.18zm0.67 7.16q0 2.4 1.23 3.75 1.24 1.35 3.08 1.35 1.81 0 2.99-1.3 1.18-1.29 1.18-3.74 0-2.14-1.2-3.43-1.21-1.3-3.05-1.3-2.14 0-3.19 1.47-1.04 1.47-1.04 3.2zm0.54-13.03q0 1.74 0.98 2.72 0.99 0.97 2.63 0.97 1.65 0 2.65-0.98 1-0.99 1-2.73 0-1.64-0.99-2.62-0.98-0.99-2.6-0.99-1.68 0-2.68 1-0.99 0.99-0.99 2.63z"/>
			<path id="&lt;Compound Path&gt;" class="s4" d="m219.01-186.32h6.14v16.47q0 3.92 0.23 5.08 0.39 1.87 1.88 3 1.48 1.13 4.05 1.13 2.61 0 3.94-1.07 1.33-1.07 1.6-2.63 0.27-1.55 0.27-5.16v-16.82h6.14v15.97q0 5.48-0.5 7.74-0.5 2.26-1.84 3.81-1.33 1.56-3.57 2.48-2.24 0.92-5.85 0.92-4.36 0-6.61-1-2.25-1.01-3.55-2.62-1.31-1.6-1.73-3.37-0.6-2.61-0.6-7.71z"/>
		</g>
		<g id="&lt;Group&gt;">
			<path id="&lt;Compound Path&gt;" class="s4" d="m59.26-108.37v-30.41h9.85q5.6 0 7.3 0.46 2.61 0.68 4.37 2.98 1.77 2.29 1.77 5.92 0 2.8-1.02 4.7-1.01 1.91-2.58 3-1.57 1.09-3.18 1.44-2.2 0.44-6.37 0.44h-4v11.47zm6.13-25.26v8.62h3.36q3.63 0 4.86-0.47 1.22-0.48 1.92-1.5 0.69-1.01 0.69-2.36 0-1.66-0.97-2.74-0.98-1.08-2.47-1.35-1.1-0.2-4.42-0.2z"/>
			<path id="&lt;Compound Path&gt;" class="s4" d="m112.25-108.37h-5.83v-21.97q-3.2 2.99-7.53 4.42v-5.29q2.28-0.74 4.96-2.83 2.67-2.08 3.67-4.86h4.73z"/>
			<path id="&lt;Compound Path&gt;" class="s4" d="m140.64-113.79v5.42h-20.43q0.33-3.07 1.99-5.82 1.66-2.75 6.56-7.29 3.93-3.67 4.83-4.98 1.2-1.8 1.2-3.56 0-1.95-1.05-3-1.05-1.05-2.89-1.05-1.83 0-2.9 1.1-1.08 1.1-1.25 3.65l-5.81-0.58q0.52-4.81 3.26-6.91 2.74-2.09 6.84-2.09 4.5 0 7.08 2.43 2.57 2.42 2.57 6.03 0 2.05-0.74 3.91-0.73 1.86-2.33 3.89-1.06 1.35-3.82 3.88-2.76 2.53-3.49 3.36-0.74 0.83-1.19 1.61z"/>
			<path id="&lt;Compound Path&gt;" class="s4" d="m144.58-132.95v-5.41h19.93v4.23q-2.47 2.43-5.02 6.97-2.55 4.54-3.89 9.65-1.34 5.11-1.32 9.14h-5.62q0.15-6.31 2.61-12.86 2.46-6.55 6.56-11.72z"/>
			<path id="&lt;Compound Path&gt;" class="s4" d="m168.78-116.48v-5.83h11.45v5.83z"/>
			<path id="&lt;Compound Path&gt;" class="s4" d="m202.09-131.33l-5.64 0.62q-0.21-1.74-1.08-2.57-0.87-0.83-2.26-0.83-1.85 0-3.12 1.66-1.28 1.66-1.61 6.91 2.18-2.58 5.41-2.58 3.65 0 6.26 2.78 2.6 2.78 2.6 7.18 0 4.66-2.74 7.49-2.74 2.82-7.03 2.82-4.6 0-7.57-3.58-2.96-3.58-2.96-11.73 0-8.36 3.09-12.05 3.09-3.69 8.02-3.69 3.47 0 5.74 1.94 2.27 1.94 2.89 5.63zm-13.21 12.71q0 2.84 1.31 4.39 1.3 1.54 2.98 1.54 1.62 0 2.7-1.26 1.08-1.27 1.08-4.15 0-2.96-1.17-4.34-1.16-1.38-2.9-1.38-1.68 0-2.84 1.31-1.16 1.32-1.16 3.89z"/>
			<path id="&lt;Compound Path&gt;" class="s4" d="m219.01-138.78h6.14v16.47q0 3.92 0.23 5.08 0.39 1.87 1.88 3 1.48 1.13 4.05 1.13 2.61 0 3.94-1.07 1.33-1.07 1.6-2.62 0.27-1.56 0.27-5.17v-16.82h6.14v15.97q0 5.48-0.5 7.74-0.5 2.26-1.84 3.81-1.33 1.56-3.57 2.48-2.24 0.93-5.85 0.93-4.36 0-6.61-1.01-2.25-1.01-3.55-2.61-1.31-1.61-1.73-3.37-0.6-2.62-0.6-7.72z"/>
		</g>
		<g id="&lt;Group&gt;">
			<path id="&lt;Compound Path&gt;" class="s4" d="m59.26-60.83v-30.4h9.85q5.6 0 7.3 0.45 2.61 0.69 4.37 2.98 1.77 2.29 1.77 5.92 0 2.8-1.02 4.71-1.01 1.9-2.58 2.99-1.57 1.09-3.18 1.45-2.2 0.43-6.37 0.43h-4v11.47zm6.13-25.26v8.63h3.36q3.63 0 4.86-0.48 1.22-0.48 1.92-1.49 0.69-1.02 0.69-2.37 0-1.66-0.97-2.74-0.98-1.07-2.47-1.34-1.1-0.21-4.42-0.21z"/>
			<path id="&lt;Compound Path&gt;" class="s4" d="m112.25-60.83h-5.83v-21.96q-3.2 2.98-7.53 4.41v-5.28q2.28-0.75 4.96-2.84 2.67-2.08 3.67-4.86h4.73z"/>
			<path id="&lt;Compound Path&gt;" class="s4" d="m120.96-85.41v-5.41h19.93v4.23q-2.47 2.43-5.02 6.97-2.55 4.54-3.89 9.65-1.34 5.12-1.32 9.14h-5.62q0.15-6.31 2.61-12.86 2.45-6.55 6.56-11.72z"/>
			<path id="&lt;Compound Path&gt;" class="s4" d="m144.7-67.86l5.64-0.62q0.21 1.72 1.08 2.55 0.87 0.83 2.3 0.83 1.81 0 3.07-1.66 1.27-1.66 1.62-6.89-2.2 2.55-5.49 2.55-3.59 0-6.19-2.77-2.61-2.76-2.61-7.2 0-4.63 2.75-7.46 2.75-2.83 7-2.83 4.62 0 7.59 3.58 2.97 3.58 2.97 11.77 0 8.34-3.09 12.03-3.09 3.69-8.05 3.69-3.57 0-5.77-1.9-2.19-1.9-2.82-5.67zm13.19-12.74q0-2.82-1.29-4.37-1.3-1.56-3-1.56-1.62 0-2.69 1.28-1.06 1.27-1.06 4.18 0 2.94 1.16 4.32 1.16 1.38 2.9 1.38 1.68 0 2.83-1.33 1.15-1.32 1.15-3.9z"/>
			<path id="&lt;Compound Path&gt;" class="s4" d="m168.78-68.94v-5.83h11.45v5.83z"/>
			<path id="&lt;Compound Path&gt;" class="s4" d="m197.26-60.83h-5.83v-21.96q-3.19 2.98-7.53 4.41v-5.28q2.28-0.75 4.96-2.84 2.67-2.08 3.67-4.86h4.73z"/>
			<path id="&lt;Compound Path&gt;" class="s4" d="m217.4-60.83v-6.12h-12.45v-5.1l13.19-19.31h4.9v19.29h3.77v5.12h-3.77v6.12zm0-11.24v-10.39l-6.99 10.39z"/>
			<path id="&lt;Compound Path&gt;" class="s4" d="m242.63-91.23h6.14v16.46q0 3.92 0.23 5.08 0.4 1.87 1.88 3 1.48 1.13 4.05 1.13 2.62 0 3.94-1.07 1.33-1.07 1.6-2.62 0.27-1.56 0.27-5.17v-16.81h6.14v15.96q0 5.48-0.5 7.74-0.5 2.26-1.83 3.82-1.34 1.55-3.58 2.48-2.24 0.92-5.85 0.92-4.36 0-6.61-1.01-2.25-1-3.55-2.61-1.31-1.61-1.72-3.37-0.61-2.61-0.61-7.72z"/>
		</g>
	</g>
	<g id="Diseño">
		<g id="&lt;Group&gt;">
			<g id="&lt;Group&gt;">
				<g id="&lt;Group&gt;">
					<g id="&lt;Group&gt;">
						<g id="&lt;Group&gt;">
							<g id="&lt;Group&gt;">
								<path id="&lt;Path&gt;" class="s2" d="m290.27 406.85v-17.53c0-1.22-0.06-2.21-0.26-2.98q-0.3-1.16-1.02-1.83-0.73-0.67-2-0.94-1.27-0.27-3.21-0.27h-15.11v23.55h-8.08v-29.15h23.67q4.1 0 6.8 0.67 2.7 0.67 4.32 2.15 1.62 1.48 2.29 3.9 0.68 2.42 0.68 5.92v16.51z"/>
							</g>
							<path id="&lt;Path&gt;" class="s2" d="m406.81 384.43q-0.7-2.42-2.4-3.9-1.7-1.48-4.53-2.15-2.83-0.67-7.13-0.67l-31.05-0.01v29.15h8.08v-22.26h10.79v22.27h8.08v-22.27h3.95q2.04 0 3.37 0.27 1.33 0.27 2.09 0.94 0.77 0.67 1.08 1.83 0.31 1.16 0.31 2.98v16.25h8.07v-16.51q0-3.5-0.71-5.92z"/>
							<g id="&lt;Group&gt;">
								<path id="&lt;Compound Path&gt;" class="s2" d="m159.48 406.85v-29.15h24.79q3.76 0 6.26 0.54 2.5 0.53 3.99 1.71 1.48 1.17 2.1 3.1 0.62 1.92 0.62 4.65v9.15q0 2.78-0.62 4.68-0.62 1.9-2.1 3.08-1.49 1.17-3.99 1.71-2.5 0.53-6.26 0.53zm29.68-18.85q0-1.32-0.27-2.24-0.27-0.92-0.94-1.45-0.67-0.54-1.76-0.77-1.09-0.24-2.77-0.24h-15.86v18h15.86q1.53 0 2.62-0.22 1.09-0.21 1.79-0.75 0.69-0.53 1.01-1.43 0.32-0.9 0.32-2.26z"/>
							</g>
							<g id="&lt;Group&gt;">
								<g id="&lt;Group&gt;">
									<path id="&lt;Compound Path&gt;" class="s2" d="m247.8 396.85v-9.15q0-2.74-0.62-4.66-0.62-1.93-2.1-3.1-1.49-1.17-3.99-1.71-2.5-0.53-6.27-0.53h-24.79v5.59h23.94q1.69 0 2.78 0.24 1.09 0.24 1.76 0.77 0.67 0.54 0.94 1.45 0.14 0.49 0.21 1.09h-16.66q-3.76 0-6.26 0.53-2.5 0.53-3.98 1.71-1.49 1.18-2.11 3.1-0.62 1.92-0.62 4.66v0.01q0 2.73 0.62 4.65 0.62 1.93 2.11 3.1 1.48 1.18 3.98 1.71 2.5 0.53 6.26 0.53l11.82 0.01q3.77 0 6.27-0.54 2.5-0.53 3.99-1.71 1.48-1.17 2.1-3.08 0.62-1.89 0.62-4.67zm-8.08-4.41v4.52q-0.04 1.12-0.32 1.9-0.31 0.89-1.01 1.43-0.69 0.53-1.78 0.74-1.1 0.22-2.64 0.22h-10.13q-1.68 0-2.77-0.24-1.09-0.23-1.75-0.77-0.67-0.53-0.94-1.45-0.23-0.75-0.27-1.79v-0.32q0.04-1.03 0.27-1.79 0.27-0.92 0.94-1.45 0.66-0.53 1.75-0.77 1.09-0.23 2.77-0.23z"/>
								</g>
							</g>
							<g id="&lt;Group&gt;">
								<g id="&lt;Group&gt;">
									<path id="&lt;Compound Path&gt;" class="s2" d="m348.9 396.85v-9.15q0-2.74-0.62-4.66-0.62-1.93-2.1-3.1-1.49-1.17-3.98-1.71-2.51-0.53-6.28-0.53h-24.79v5.59h23.94q1.69 0 2.79 0.24 1.08 0.24 1.76 0.77 0.66 0.54 0.93 1.45 0.15 0.49 0.22 1.09h-16.67q-3.76 0-6.26 0.53-2.5 0.53-3.98 1.71-1.49 1.18-2.11 3.1-0.61 1.92-0.62 4.66v0.01q0.01 2.73 0.62 4.65 0.62 1.93 2.11 3.1 1.48 1.18 3.98 1.71 2.5 0.53 6.26 0.53l11.82 0.01q3.77 0 6.28-0.54 2.49-0.53 3.98-1.71 1.48-1.17 2.1-3.08 0.62-1.89 0.62-4.67zm-8.07-4.41v4.52q-0.05 1.12-0.32 1.9-0.32 0.89-1.01 1.43-0.7 0.53-1.79 0.74-1.09 0.22-2.63 0.22h-10.13q-1.69 0-2.77-0.24-1.09-0.23-1.76-0.77-0.67-0.53-0.94-1.45-0.22-0.75-0.26-1.79v-0.32q0.04-1.03 0.26-1.79 0.27-0.92 0.94-1.45 0.67-0.53 1.76-0.77 1.08-0.23 2.77-0.23z"/>
								</g>
							</g>
						</g>
					</g>
				</g>
				<g id="&lt;Group&gt;">
					<g id="&lt;Group&gt;">
						<path id="&lt;Compound Path&gt;" class="s2" d="m163.67 420.47h-4.19v-8.07h4.19c1.59 0 2.57 0.81 2.57 2.11v3.85c0 1.3-0.98 2.11-2.57 2.11zm-2.69-1.17h3.06c0.49 0 0.7-0.21 0.7-0.68v-4.37c0-0.47-0.21-0.68-0.7-0.68h-3.06z"/>
					</g>
					<g id="&lt;Group&gt;">
						<path id="&lt;Compound Path&gt;" class="s2" d="m175.57 420.47h-5.86v-8.07h5.86v1.17h-4.37v2.14h4v1.17h-4v2.42h4.37z"/>
					</g>
					<g id="&lt;Group&gt;">
						<path id="&lt;Compound Path&gt;" class="s2" d="m182.84 420.47h-3.89v-1.17h4.37c0.52 0 0.62-0.11 0.62-0.35v-1.69l-3.62-0.46c-1.06-0.13-1.53-1.02-1.53-1.84v-0.33c0-1.41 0.95-2.23 2.59-2.23h3.64v1.17h-4.11c-0.53 0-0.62 0.11-0.62 0.35v1.62l3.61 0.48q1.54 0.19 1.53 1.89v0.33c0 1.41-0.94 2.23-2.59 2.23z"/>
					</g>
					<g id="&lt;Group&gt;">
						<path id="&lt;Compound Path&gt;" class="s2" d="m195.79 420.47h-1.52l-0.65-1.78h-3.6l-0.65 1.78h-1.5l3.04-8.07h1.82l0.02 0.05zm-5.33-2.94h2.75l-1.38-3.72z"/>
					</g>
					<g id="&lt;Group&gt;">
						<path id="&lt;Compound Path&gt;" class="s2" d="m205.48 420.47h-1.63l-1.4-2.88h-2.36v2.88h-1.49v-8.07h3.65c1.77 0 2.66 0.32 2.66 2.04v1.53c0 0.84-0.51 1.34-1.05 1.49zm-5.38-4.04h2.74c0.53 0 0.59-0.25 0.59-0.44v-1.97c0-0.19-0.06-0.44-0.59-0.44h-2.74z"/>
					</g>
					<g id="&lt;Group&gt;">
						<path id="&lt;Compound Path&gt;" class="s2" d="m215.52 420.47h-1.63l-1.4-2.88h-2.35v2.88h-1.5v-8.07h3.66c1.76 0 2.66 0.32 2.66 2.04v1.53c0 0.84-0.51 1.34-1.05 1.49zm-5.38-4.04h2.74c0.52 0 0.58-0.25 0.58-0.44v-1.97c0-0.19-0.06-0.44-0.58-0.44h-2.74z"/>
					</g>
					<g id="&lt;Group&gt;">
						<path id="&lt;Compound Path&gt;" class="s2" d="m223.07 420.47h-2.19c-1.53 0-2.44-0.79-2.44-2.11v-3.85c0-1.32 0.91-2.11 2.44-2.11h2.19c1.52 0 2.44 0.79 2.44 2.11v3.85c0 1.32-0.92 2.11-2.44 2.11zm-2.55-6.9c-0.44 0-0.58 0.17-0.58 0.68v4.37c0 0.51 0.14 0.68 0.58 0.68h2.91c0.44 0 0.58-0.17 0.58-0.68v-4.37c0-0.51-0.14-0.68-0.58-0.68z"/>
					</g>
					<g id="&lt;Group&gt;">
						<path id="&lt;Compound Path&gt;" class="s2" d="m234.84 420.47h-5.87v-8.07h1.5v6.9h4.37z"/>
					</g>
					<g id="&lt;Group&gt;">
						<path id="&lt;Compound Path&gt;" class="s2" d="m243.8 420.47h-5.87v-8.07h1.5v6.9h4.37z"/>
					</g>
					<g id="&lt;Group&gt;">
						<path id="&lt;Compound Path&gt;" class="s2" d="m251.27 420.47h-2.19c-1.52 0-2.44-0.79-2.44-2.11v-3.85c0-1.32 0.92-2.11 2.44-2.11h2.19c1.53 0 2.44 0.79 2.44 2.11v3.85c0 1.32-0.91 2.11-2.44 2.11zm-2.55-6.9c-0.44 0-0.58 0.17-0.58 0.68v4.37c0 0.51 0.14 0.68 0.58 0.68h2.91c0.44 0 0.58-0.17 0.58-0.68v-4.37c0-0.51-0.14-0.68-0.58-0.68z"/>
					</g>
					<g id="&lt;Group&gt;">
						<path id="&lt;Compound Path&gt;" class="s2" d="m266.83 420.47h-1.49v-2.62l-3.18-5.45h1.65l0.03 0.04 2.24 4.18 2.27-4.22h1.66l-3.18 5.45z"/>
					</g>
					<g id="&lt;Group&gt;">
						<path id="&lt;Compound Path&gt;" class="s2" d="m285.72 420.47h-1.52l-0.65-1.78h-3.6l-0.64 1.78h-1.51l3.04-8.07h1.82l0.02 0.05zm-5.33-2.94h2.75l-1.38-3.72z"/>
					</g>
					<g id="&lt;Group&gt;">
						<path id="&lt;Compound Path&gt;" class="s2" d="m292.53 420.47h-1.81c-1.54 0-2.57-0.9-2.57-2.23v-5.84h1.5v6.22c0 0.47 0.22 0.68 0.71 0.68h2.53c0.49 0 0.71-0.21 0.71-0.68v-6.22h1.5v5.84c0 1.33-1.03 2.23-2.57 2.23z"/>
					</g>
					<g id="&lt;Group&gt;">
						<path id="&lt;Compound Path&gt;" class="s2" d="m302.14 420.47h-1.49v-6.94h-2.71v-1.13h6.92v1.13h-2.72z"/>
					</g>
					<g id="&lt;Group&gt;">
						<path id="&lt;Compound Path&gt;" class="s2" d="m312.45 420.47h-2.19c-1.53 0-2.44-0.79-2.44-2.11v-3.85c0-1.32 0.91-2.11 2.44-2.11h2.19c1.53 0 2.44 0.79 2.44 2.11v3.85c0 1.32-0.91 2.11-2.44 2.11zm-2.55-6.9c-0.44 0-0.58 0.17-0.58 0.68v4.37c0 0.51 0.14 0.68 0.58 0.68h2.91c0.44 0 0.58-0.17 0.58-0.68v-4.37c0-0.51-0.14-0.68-0.58-0.68z"/>
					</g>
					<g id="&lt;Group&gt;">
						<path id="&lt;Compound Path&gt;" class="s2" d="m327.71 420.47h-1.5v-6.84l-2.24 6.84h-1.87l-0.02-0.06-2.23-6.78v6.84h-1.49v-8.07h2.54v0.08l2.13 6.78 2.13-6.78v-0.06l0.08-0.02h2.47z"/>
					</g>
					<g id="&lt;Group&gt;">
						<path id="&lt;Compound Path&gt;" class="s2" d="m338.44 420.47h-1.52l-0.65-1.78h-3.6l-0.65 1.78h-1.5l3.04-8.07h1.82l0.02 0.05zm-5.33-2.94h2.75l-1.38-3.72z"/>
					</g>
					<g id="&lt;Group&gt;">
						<path id="&lt;Compound Path&gt;" class="s2" d="m344.96 420.47h-1.5v-6.94h-2.71v-1.13h6.92v1.13h-2.71z"/>
					</g>
					<g id="&lt;Group&gt;">
						<path id="&lt;Compound Path&gt;" class="s2" d="m352.38 420.47h-1.5v-8.07h1.5z"/>
					</g>
					<g id="&lt;Group&gt;">
						<path id="&lt;Compound Path&gt;" class="s2" d="m362.39 420.47h-6.8v-1.02h0.06l4.7-5.88h-4.51v-1.17h6.42v0.94l-4.74 5.96h4.87z"/>
					</g>
					<g id="&lt;Group&gt;">
						<path id="&lt;Compound Path&gt;" class="s2" d="m372.62 420.47h-1.52l-0.65-1.78h-3.6l-0.65 1.78h-1.51l3.05-8.07h1.82l0.02 0.05zm-5.34-2.94h2.75l-1.37-3.72z"/>
					</g>
					<g id="&lt;Group&gt;">
						<path id="&lt;Compound Path&gt;" class="s2" d="m381.38 420.47h-3.52c-1.52 0-2.44-0.79-2.44-2.11v-3.85c0-1.32 0.92-2.11 2.44-2.11h3.52v1.17h-3.88c-0.44 0-0.58 0.17-0.58 0.68v4.37c0 0.51 0.14 0.68 0.58 0.68h3.88z"/>
					</g>
					<g id="&lt;Group&gt;">
						<path id="&lt;Compound Path&gt;" class="s2" d="m385.97 420.47h-1.5v-8.07h1.5z"/>
					</g>
					<g id="&lt;Group&gt;">
						<path id="&lt;Compound Path&gt;" class="s2" d="m394.06 420.47h-2.19c-1.53 0-2.44-0.79-2.44-2.11v-3.85c0-1.32 0.91-2.11 2.44-2.11h2.19c1.53 0 2.44 0.79 2.44 2.11v3.85c0 1.32-0.91 2.11-2.44 2.11zm-2.55-6.9c-0.44 0-0.58 0.17-0.58 0.68v4.37c0 0.51 0.14 0.68 0.58 0.68h2.91c0.44 0 0.58-0.17 0.58-0.68v-4.37c0-0.51-0.14-0.68-0.58-0.68zm0.2-1.64l-0.27-0.71 2.74-1.25 0.54 1.05z"/>
					</g>
					<g id="&lt;Group&gt;">
						<path id="&lt;Compound Path&gt;" class="s2" d="m407.52 420.47h-2.36l-3.7-6.79v6.79h-1.49v-8.07h2.33l3.72 6.79v-6.79h1.5z"/>
					</g>
				</g>
			</g>
			<path id="&lt;Compound Path&gt;" class="s5" d="m350.84 176.32l-11.61-11.61v-7.55c2.33-1.14 3.94-3.53 3.94-6.28 0-3.86-3.14-7-7-7-3.85 0-6.99 3.14-6.99 7 0 2.8 1.66 5.22 4.05 6.33v8.75c0 0.79 0.32 1.56 0.88 2.12l11.61 11.61v11.89l-15.48 15.48c-0.56 0.56-0.87 1.32-0.87 2.12v26.67l-10.57 10.57v-16.17c0-0.8-0.32-1.56-0.88-2.12l-15.22-15.22v-22.68l22.68-22.68c0.56-0.56 0.88-1.33 0.88-2.12v-41.83c4.43-1.3 7.68-5.4 7.68-10.25 0-5.89-4.79-10.68-10.68-10.68-5.89 0-10.68 4.79-10.68 10.68 0 4.85 3.25 8.95 7.68 10.25v40.59l-17.56 17.55v-15.32l9.92-9.92c0.56-0.56 0.88-1.32 0.88-2.12v-16.52c2.35-1.12 3.99-3.52 3.99-6.31 0-3.85-3.14-6.99-6.99-6.99-3.86 0-7 3.14-7 6.99 0 2.79 1.64 5.19 4 6.32v15.27l-9.92 9.91c-0.56 0.57-0.88 1.33-0.88 2.12v48.98c0 0.8 0.32 1.56 0.88 2.12l15.22 15.22v20.93l-4.16 4.16v-19.63c0-0.8-0.32-1.56-0.88-2.12l-21.58-21.58v-84.74c2.36-1.12 4-3.52 4-6.3 0-3.86-3.14-7-7-7-3.85 0-6.99 3.14-6.99 7 0 2.78 1.64 5.18 3.99 6.3v78.74l-4.68-4.68v-25.21c0-0.8-0.31-1.56-0.88-2.12l-13.64-13.64v-44.1c2.36-1.13 3.99-3.53 3.99-6.31 0-3.86-3.13-6.99-6.99-6.99-3.86 0-7 3.13-7 6.99 0 2.78 1.64 5.18 4 6.31v45.34c0 0.79 0.32 1.56 0.88 2.12l13.64 13.64v25.21c0 0.8 0.32 1.56 0.88 2.12l10.68 10.69q0 0 0.01 0l21.57 21.57v35.06l-16.14 16.13v-17.43q0.02-0.16 0.02-0.32v-15.65c0-0.79-0.32-1.56-0.88-2.12l-29.72-29.72v-48.13c0-0.8-0.32-1.56-0.88-2.12l-11.92-11.92v-27.02c2.36-1.13 4-3.53 4-6.31 0-3.86-3.14-7-7-7-3.86 0-6.99 3.14-6.99 7 0 2.78 1.63 5.18 3.99 6.31v28.26c0 0.8 0.32 1.56 0.88 2.12l11.92 11.92v48.13c0 0.8 0.31 1.56 0.88 2.12l29.72 29.72v7.22l-41.24-41.79v-11.82c0-0.8-0.31-1.56-0.87-2.13l-24.09-24.08v-11.9l12.69-12.69c0.56-0.56 0.88-1.32 0.88-2.12v-8.75c2.38-1.11 4.04-3.53 4.04-6.33 0-3.86-3.14-6.99-7-6.99-3.85 0-6.99 3.13-6.99 6.99 0 2.77 1.61 5.15 3.95 6.29v7.55l-12.69 12.69c-0.57 0.56-0.88 1.32-0.88 2.12v14.38c0 0.8 0.31 1.56 0.88 2.12l24.08 24.09v11.81c0 0.79 0.32 1.54 0.87 2.11l46.35 46.97v16.35l-52.31-53.01v-21.72c0-0.79-0.32-1.56-0.88-2.12l-28.01-28.01v-13.8l13.69-13.69c0.57-0.57 0.88-1.33 0.88-2.13v-26.38c4.42-1.31 7.65-5.4 7.65-10.24 0-5.89-4.79-10.68-10.68-10.68-5.89 0-10.68 4.79-10.68 10.68 0 4.86 3.27 8.96 7.71 10.25v25.13l-13.69 13.69c-0.56 0.57-0.88 1.33-0.88 2.13v16.28c0 0.8 0.32 1.56 0.88 2.13l28.01 28v21.71c0 0.79 0.31 1.54 0.86 2.11l58.32 59.09q0 0 0 0 0 0.01 0.01 0.01 0 0 0 0 0 0 0 0.01 0.21 0.2 0.45 0.36 0.01 0.01 0.02 0.01 0.01 0.01 0.03 0.02 0.22 0.15 0.47 0.25 0.01 0.01 0.02 0.01 0.02 0 0.03 0.01 0.25 0.1 0.52 0.15 0 0 0.01 0.01 0.01 0 0.02 0 0.27 0.05 0.55 0.05 0.28 0 0.55-0.05 0.01 0 0.02 0 0.01 0 0.01-0.01 0.27-0.05 0.51-0.15 0.02 0 0.04-0.01 0 0 0.01 0 0.25-0.11 0.47-0.25 0.02-0.01 0.04-0.02 0-0.01 0.01-0.01 0.24-0.16 0.44-0.35 0-0.01 0.01-0.01 0-0.01 0-0.01 0.01 0 0.01-0.01l22.14-22.13c0.56-0.56 0.88-1.33 0.88-2.12v-9.42l25.85-25.86c0.56-0.56 0.88-1.32 0.88-2.12v-26.67l15.47-15.47c0.57-0.57 0.88-1.33 0.88-2.12v-14.38c0-0.8-0.31-1.56-0.88-2.13zm83.97 50.7c-3.25-0.51-6.17 1.24-7.44 3.91h-6.98c-0.8 0-1.56 0.31-2.12 0.88l-43.63 43.63h-46.09l3.59-3.59h22.28c0.8 0 1.56-0.32 2.12-0.88l48.38-48.38c1.13 0.41 2.39 0.55 3.72 0.28 2.98-0.61 5.29-3.12 5.59-6.14 0.44-4.42-3.26-8.11-7.67-7.68-3.03 0.31-5.54 2.61-6.14 5.58-0.28 1.33-0.14 2.58 0.26 3.72l-47.5 47.5h-15.04l49.51-49.51c0.56-0.56 0.87-1.33 0.87-2.12v-20.38l16.29-16.29h9.56c1.38 4.68 5.87 8.04 11.07 7.65 5.06-0.38 9.23-4.38 9.79-9.42 0.72-6.44-4.32-11.91-10.61-11.91-4.85 0-8.95 3.25-10.25 7.68h-10.8c-0.8 0-1.56 0.32-2.12 0.88l-18.05 18.04c-0.56 0.57-0.88 1.33-0.88 2.13v20.38l-37.7 37.7v-34.86l21.04-21.04c0.56-0.56 0.88-1.32 0.88-2.12v-16.29c0-0.79-0.32-1.56-0.88-2.12l-13.69-13.69v-17.65c2.73-1.23 4.54-4.17 4.04-7.46-0.47-3.07-3.01-5.51-6.11-5.86-4.21-0.47-7.8 2.83-7.8 6.95 0 2.74 1.58 5.1 3.87 6.25v19.01c0 0.8 0.31 1.56 0.88 2.12l13.69 13.69v13.81l-21.04 21.04c-0.57 0.56-0.88 1.33-0.88 2.12v42.1l-42.34 42.34c-0.56 0.56-0.88 1.33-0.88 2.12v33.61c0 1.66 1.35 3 3 3l113.43 27.19c7.79 2.16 14.65 6.58 14.65 14.66v38.97c0 8.08-6.47 13.1-14.65 14.65l-126.75 24.84c-2.32 0.46-4.72 0.45-7.04-0.01l-124.62-24.83c-7.74-1.45-14.65-6.57-14.65-14.65v-38.97c0-8.08 6.91-12.73 14.65-14.66l114.78-27.19c1.66 0 3-1.34 3-3v-33.61c0-0.79-0.31-1.56-0.88-2.12l-86.04-86.04v-20.38c0-0.8-0.32-1.56-0.88-2.13l-17.28-17.28c0.31-1.11 0.39-2.31 0.08-3.58-0.72-2.9-3.24-5.09-6.22-5.33-4.44-0.36-8.12 3.46-7.51 7.95 0.42 3.05 2.87 5.51 5.91 5.94 1.34 0.19 2.62 0 3.75-0.48l16.15 16.15v20.38c0 0.79 0.32 1.56 0.88 2.12l49.51 49.51h-15.04l-41.55-41.55c1.18-1.96 1.77-4.31 1.45-6.82-0.61-4.91-4.62-8.83-9.55-9.3-6.68-0.64-12.28 4.93-11.68 11.6 0.44 4.99 4.42 9.06 9.39 9.64 2.16 0.25 4.2-0.17 5.98-1.05l42.59 42.6c0.56 0.56 1.33 0.88 2.12 0.88h22.29l3.59 3.59h-46.09l-48.13-48.13v-17.44c0-0.79-0.32-1.56-0.88-2.12l-10-10c0.43-1.14 0.59-2.41 0.34-3.75-0.57-3.01-3.09-5.36-6.14-5.68-4.44-0.46-8.16 3.27-7.69 7.72 0.31 2.99 2.59 5.48 5.54 6.09 1.29 0.26 2.51 0.15 3.62-0.22l9.21 9.2v17.44c0 0.8 0.31 1.56 0.88 2.12l49.88 49.89c0.57 0.56 1.33 0.88 2.13 0.88h25.09l-9.54 9.54h-20.18l-19.78-19.78c0.4-1.14 0.54-2.4 0.27-3.72-0.6-2.98-3.12-5.29-6.14-5.59-4.42-0.44-8.11 3.26-7.67 7.67 0.3 3.02 2.6 5.53 5.58 6.14 1.32 0.27 2.58 0.14 3.71-0.27l20.66 20.67c0.57 0.56 1.33 0.88 2.12 0.88h22.68c0.79 0 1.56-0.32 2.12-0.88l14.66-14.66h19.75l20.94 20.94v29.37l-111.78 27.19c-11.53 2.1-20.65 9.27-20.65 20.66v38.97c0 11.39 9.91 18.89 20.65 20.65l124.62 24.83c2.32 0.46 4.72 0.47 7.04 0.01l126.75-24.84c11.85-1.97 20.65-9.26 20.65-20.65v-38.97c0-11.39-9.99-18-20.65-20.66l-110.43-27.19v-29.37l20.95-20.94h20.41l14.66 14.66c0.56 0.56 1.32 0.88 2.12 0.88h26.16c0.79 0 1.56-0.32 2.12-0.88l20.86-20.86c0.94 0.29 1.97 0.39 3.04 0.24 3.1-0.44 5.58-2.96 5.95-6.07 0.55-4.52-3.26-8.33-7.77-7.8-3.08 0.35-5.59 2.77-6.08 5.83-0.21 1.33-0.03 2.61 0.43 3.74l-19.79 19.8h-23.68l-9.53-9.54h24.43c0.79 0 1.56-0.32 2.12-0.88l43.63-43.63h5.74c1.12 2.36 3.52 3.99 6.31 3.99 4.12 0 7.42-3.59 6.94-7.81-0.35-3.07-2.76-5.61-5.81-6.09zm-116.23-113.67c0-2.58 2.1-4.68 4.68-4.68 2.58 0 4.68 2.1 4.68 4.68 0 2.58-2.1 4.68-4.68 4.68-2.58 0-4.68-2.1-4.68-4.68zm-8.08 17.21c0.54 0 0.99 0.45 0.99 0.99 0 0.55-0.45 1-0.99 1-0.55 0-1-0.45-1-1 0-0.54 0.45-0.99 1-0.99zm-52.52-18.38c-0.55 0-1-0.44-1-0.99 0-0.55 0.45-0.99 1-0.99 0.55 0 0.99 0.44 0.99 0.99 0 0.55-0.44 0.99-0.99 0.99zm25.2 11.02c-0.54 0-0.99-0.45-0.99-0.99 0-0.55 0.45-1 0.99-1 0.55 0 1 0.45 1 1 0 0.54-0.45 0.99-1 0.99zm-43.06 6.43c-0.55 0-0.99-0.44-0.99-0.99 0-0.55 0.44-1 0.99-1 0.55 0 1 0.45 1 1 0 0.55-0.45 0.99-1 0.99zm-15.19 12.21c0.55 0 1 0.44 1 0.99 0 0.55-0.45 1-1 1-0.55 0-0.99-0.45-0.99-1 0-0.55 0.44-0.99 0.99-0.99zm-18.77-23.63c0-2.58 2.1-4.68 4.68-4.68 2.58 0 4.68 2.1 4.68 4.68 0 2.58-2.1 4.68-4.68 4.68-2.58 0-4.68-2.1-4.68-4.68zm130.01 33.66c-0.55 0-0.99-0.45-0.99-0.99 0-0.55 0.44-1 0.99-1 0.55 0 1 0.45 1 1 0 0.54-0.45 0.99-1 0.99zm71.1 63.15c0.55 0 0.99 0.45 0.99 0.99 0 0.55-0.44 1-0.99 1-0.55 0-1-0.45-1-1 0-0.54 0.45-0.99 1-0.99zm17.35-45.15c2.58 0 4.68 2.1 4.68 4.68 0 2.58-2.1 4.68-4.68 4.68-2.58 0-4.68-2.1-4.68-4.68 0-2.58 2.1-4.68 4.68-4.68zm-75.32-32.33c-0.55 0-1-0.45-1-1 0-0.55 0.45-0.99 1-0.99 0.54 0 0.99 0.44 0.99 0.99 0 0.55-0.45 1-0.99 1zm-189.7 34.7c-0.55 0-0.99-0.44-0.99-0.99 0-0.55 0.44-1 0.99-1 0.55 0 1 0.45 1 1 0 0.55-0.45 0.99-1 0.99zm3.54 51.25c-2.58 0-4.68-2.1-4.68-4.68 0-2.58 2.1-4.68 4.68-4.68 2.58 0 4.68 2.1 4.68 4.68 0 2.58-2.1 4.68-4.68 4.68zm-36.32-27.22c-0.55 0-0.99-0.44-0.99-0.99 0-0.55 0.44-1 0.99-1 0.55 0 1 0.45 1 1 0 0.55-0.45 0.99-1 0.99zm33.32 73.57c-0.55 0-1-0.44-1-0.99 0-0.55 0.45-1 1-1 0.55 0 0.99 0.45 0.99 1 0 0.55-0.44 0.99-0.99 0.99zm250.79-2.28c0.55 0 0.99 0.44 0.99 0.99 0 0.55-0.44 1-0.99 1-0.55 0-1-0.45-1-1 0-0.55 0.45-0.99 1-0.99zm22.75-32.64c-0.55 0-1-0.44-1-0.99 0-0.55 0.45-1 1-1 0.54 0 0.99 0.45 0.99 1 0 0.55-0.45 0.99-0.99 0.99z"/>
		</g>
	</g>
</svg>